<svg width="19" height="16" viewBox="0 0 19 16" fill="none" xmlns="http://www.w3.org/2000/svg">
<path d="M18.2804 8.53055L11.5304 15.2806C11.3897 15.4213 11.1988 15.5003 10.9998 15.5003C10.8007 15.5003 10.6099 15.4213 10.4691 15.2806C10.3284 15.1398 10.2493 14.949 10.2493 14.7499C10.2493 14.5509 10.3284 14.36 10.4691 14.2193L15.9394 8.74993H1.24976C1.05084 8.74993 0.860078 8.67091 0.719426 8.53026C0.578774 8.38961 0.499756 8.19884 0.499756 7.99993C0.499756 7.80102 0.578774 7.61025 0.719426 7.4696C0.860078 7.32895 1.05084 7.24993 1.24976 7.24993H15.9394L10.4691 1.78055C10.3284 1.63982 10.2493 1.44895 10.2493 1.24993C10.2493 1.05091 10.3284 0.860034 10.4691 0.719304C10.6099 0.578573 10.8007 0.499512 10.9998 0.499512C11.1988 0.499512 11.3897 0.578573 11.5304 0.719304L18.2804 7.4693C18.3501 7.53896 18.4054 7.62168 18.4432 7.71272C18.4809 7.80377 18.5003 7.90137 18.5003 7.99993C18.5003 8.09849 18.4809 8.19609 18.4432 8.28713C18.4054 8.37818 18.3501 8.4609 18.2804 8.53055Z" fill="white"/>
</svg>
