<svg width="33" height="33" viewBox="0 0 33 33" fill="none" xmlns="http://www.w3.org/2000/svg">
<path d="M24.9921 7.00994C24.8837 6.90149 24.7551 6.81545 24.6134 6.75676C24.4718 6.69806 24.32 6.66784 24.1667 6.66784C24.0133 6.66784 23.8615 6.69806 23.7199 6.75676C23.5783 6.81545 23.4496 6.90149 23.3412 7.00994L19.0173 11.3344H12.9827L8.65875 7.00994C8.43984 6.79107 8.14292 6.66811 7.83333 6.66811C7.52374 6.66811 7.22683 6.79107 7.00792 7.00994C6.789 7.2288 6.66602 7.52565 6.66602 7.83517C6.66602 8.14469 6.789 8.44153 7.00792 8.6604L11.3333 12.9834V19.0166L7.00792 23.3396C6.789 23.5585 6.66602 23.8553 6.66602 24.1648C6.66602 24.4744 6.789 24.7712 7.00792 24.9901C7.22683 25.2089 7.52374 25.3319 7.83333 25.3319C8.14292 25.3319 8.43984 25.2089 8.65875 24.9901L12.9827 20.6656H19.0173L23.3412 24.9901C23.4496 25.0984 23.5783 25.1844 23.72 25.243C23.8616 25.3017 24.0134 25.3319 24.1667 25.3319C24.32 25.3319 24.4718 25.3017 24.6134 25.243C24.755 25.1844 24.8837 25.0984 24.9921 24.9901C25.1005 24.8817 25.1865 24.753 25.2451 24.6114C25.3038 24.4699 25.334 24.3181 25.334 24.1648C25.334 24.0116 25.3038 23.8598 25.2451 23.7182C25.1865 23.5766 25.1005 23.448 24.9921 23.3396L20.6667 19.0166V12.9834L24.9921 8.6604C25.1006 8.55207 25.1866 8.42343 25.2453 8.28183C25.304 8.14023 25.3342 7.98845 25.3342 7.83517C25.3342 7.68188 25.304 7.5301 25.2453 7.3885C25.1866 7.2469 25.1006 7.11826 24.9921 7.00994ZM13.6667 13.6672H18.3333V18.3328H13.6667V13.6672ZM17.5327 6.27947C17.8943 5.25808 18.5088 4.34489 19.3188 3.62509C20.1289 2.90529 21.108 2.40233 22.165 2.16314C23.222 1.92394 24.3224 1.95629 25.3635 2.25718C26.4046 2.55807 27.3526 3.11768 28.1189 3.88383C28.8852 4.64998 29.445 5.59769 29.7459 6.63857C30.0469 7.67945 30.0792 8.77958 29.84 9.83634C29.6007 10.8931 29.0976 11.8721 28.3777 12.6819C27.6577 13.4918 26.7443 14.1061 25.7227 14.4676C25.5982 14.5148 25.4665 14.54 25.3333 14.542C25.0583 14.5419 24.7921 14.4446 24.5818 14.2673C24.3715 14.09 24.2306 13.8441 24.184 13.5731C24.1375 13.3021 24.1882 13.0233 24.3272 12.786C24.4663 12.5487 24.6847 12.3682 24.944 12.2763C25.594 12.0461 26.1752 11.6551 26.6333 11.1398C27.0914 10.6244 27.4115 10.0015 27.5637 9.329C27.7159 8.65654 27.6953 7.9565 27.5037 7.29416C27.3122 6.63182 26.956 6.02877 26.4684 5.54125C25.9808 5.05373 25.3776 4.69762 24.7151 4.50614C24.0526 4.31466 23.3524 4.29404 22.6798 4.44621C22.0072 4.59839 21.3841 4.91839 20.8686 5.37638C20.3531 5.83437 19.9621 6.41542 19.7319 7.06534C19.6827 7.21222 19.6048 7.34785 19.5026 7.4643C19.4005 7.58075 19.2762 7.6757 19.1369 7.7436C18.9977 7.8115 18.8463 7.85099 18.6916 7.85977C18.537 7.86856 18.3821 7.84645 18.2361 7.79475C18.09 7.74305 17.9557 7.66278 17.8411 7.55864C17.7264 7.4545 17.6336 7.32857 17.5681 7.18819C17.5027 7.04782 17.4658 6.89581 17.4597 6.74104C17.4536 6.58627 17.4785 6.43184 17.5327 6.28676V6.27947ZM30 23.5816C30.0007 25.0955 29.466 26.5608 28.4903 27.7185C27.5146 28.8761 26.1609 29.6515 24.6686 29.9076C23.1762 30.1636 21.6414 29.8837 20.3355 29.1175C19.0296 28.3513 18.0368 27.148 17.5327 25.7205C17.4356 25.4305 17.4564 25.114 17.5905 24.8391C17.7246 24.5642 17.9613 24.353 18.2497 24.2509C18.538 24.1488 18.8549 24.1641 19.1322 24.2933C19.4094 24.4226 19.6248 24.6555 19.7319 24.9419C19.9621 25.5919 20.3531 26.1729 20.8686 26.6309C21.3841 27.0889 22.0072 27.4089 22.6798 27.5611C23.3524 27.7132 24.0526 27.6926 24.7151 27.5012C25.3776 27.3097 25.9808 26.9536 26.4684 26.466C26.956 25.9785 27.3122 25.3755 27.5037 24.7131C27.6953 24.0508 27.7159 23.3507 27.5637 22.6783C27.4115 22.0058 27.0914 21.3829 26.6333 20.8675C26.1752 20.3521 25.594 19.9612 24.944 19.731C24.6574 19.6239 24.4244 19.4086 24.2952 19.1314C24.1659 18.8543 24.1507 18.5374 24.2528 18.2492C24.3549 17.9609 24.5662 17.7242 24.8411 17.5901C25.116 17.4561 25.4326 17.4353 25.7227 17.5324C26.973 17.976 28.0553 18.7956 28.8211 19.8787C29.5869 20.9618 29.9987 22.2552 30 23.5816ZM14.4673 25.7205C14.1057 26.7419 13.4912 27.6551 12.6812 28.3749C11.8711 29.0947 10.892 29.5977 9.83495 29.8369C8.77796 30.0761 7.67758 30.0437 6.63647 29.7428C5.59535 29.4419 4.64743 28.8823 3.88111 28.1162C3.11479 27.35 2.55505 26.4023 2.25409 25.3614C1.95314 24.3206 1.92078 23.2204 2.16003 22.1637C2.39928 21.1069 2.90235 20.1279 3.62231 19.3181C4.34227 18.5082 5.25567 17.8939 6.27729 17.5324C6.56738 17.4353 6.88398 17.4561 7.15891 17.5901C7.43384 17.7242 7.64511 17.9609 7.74722 18.2492C7.84933 18.5374 7.8341 18.8543 7.70483 19.1314C7.57555 19.4086 7.34256 19.6239 7.05604 19.731C6.40597 19.9612 5.82479 20.3521 5.3667 20.8675C4.90861 21.3829 4.58854 22.0058 4.43633 22.6783C4.28412 23.3507 4.30474 24.0508 4.49627 24.7131C4.68779 25.3755 5.04398 25.9785 5.53161 26.466C6.01924 26.9536 6.62243 27.3097 7.28491 27.5012C7.9474 27.6926 8.6476 27.7132 9.32021 27.5611C9.99282 27.4089 10.6159 27.0889 11.1314 26.6309C11.6469 26.1729 12.0379 25.5919 12.2681 24.9419C12.3753 24.6555 12.5906 24.4226 12.8679 24.2933C13.1451 24.1641 13.462 24.1488 13.7503 24.2509C14.0387 24.353 14.2754 24.5642 14.4095 24.8391C14.5436 25.114 14.5644 25.4305 14.4673 25.7205ZM2 8.41837C1.99926 6.90454 2.53401 5.43921 3.50968 4.28154C4.48535 3.12388 5.83907 2.34846 7.33143 2.09243C8.8238 1.8364 10.3586 2.11625 11.6645 2.88249C12.9704 3.64874 13.9632 4.852 14.4673 6.27947C14.5215 6.42455 14.5464 6.57898 14.5403 6.73375C14.5342 6.88852 14.4973 7.04053 14.4319 7.1809C14.3664 7.32128 14.2736 7.44721 14.1589 7.55135C14.0443 7.65549 13.91 7.73576 13.7639 7.78746C13.6179 7.83916 13.463 7.86127 13.3084 7.85248C13.1537 7.8437 13.0023 7.80421 12.8631 7.73631C12.7238 7.66841 12.5995 7.57346 12.4974 7.45701C12.3952 7.34056 12.3173 7.20493 12.2681 7.05805C12.0379 6.40813 11.6469 5.82708 11.1314 5.36909C10.6159 4.9111 9.99282 4.5911 9.32021 4.43892C8.6476 4.28675 7.9474 4.30737 7.28491 4.49885C6.62243 4.69033 6.01924 5.04644 5.53161 5.53396C5.04398 6.02148 4.68779 6.62453 4.49627 7.28687C4.30474 7.94921 4.28412 8.64925 4.43633 9.32171C4.58854 9.99416 4.90861 10.6171 5.3667 11.1325C5.82479 11.6479 6.40597 12.0388 7.05604 12.269C7.32072 12.357 7.54511 12.5368 7.68854 12.776C7.83196 13.0152 7.88493 13.2978 7.83785 13.5727C7.79077 13.8475 7.64674 14.0964 7.43188 14.2743C7.21702 14.4521 6.94555 14.5471 6.66667 14.542C6.53397 14.5423 6.40222 14.5196 6.27729 14.4749C5.02585 14.0309 3.94271 13.2102 3.17678 12.1256C2.41086 11.0411 1.99976 9.746 2 8.41837Z" fill="white"/>
</svg>
