<svg width="25" height="30" viewBox="0 0 25 30" fill="none" xmlns="http://www.w3.org/2000/svg">
<path d="M13.3869 0.326361C13.1269 0.144447 12.8173 0.046875 12.5 0.046875C12.1827 0.046875 11.8731 0.144447 11.6131 0.326361C9.61989 1.79534 7.79625 3.48149 6.17586 5.3537C2.55488 9.51222 0.640625 13.9195 0.640625 18.0935C0.640625 21.2388 1.89009 24.2553 4.11416 26.4794C6.33822 28.7034 9.3547 29.9529 12.5 29.9529C15.6453 29.9529 18.6618 28.7034 20.8858 26.4794C23.1099 24.2553 24.3594 21.2388 24.3594 18.0935C24.3594 8.12132 13.8355 0.639603 13.3869 0.326361ZM12.5 26.8591C10.1759 26.8567 7.94776 25.9325 6.30441 24.2891C4.66105 22.6457 3.73676 20.4176 3.73438 18.0935C3.73438 13.7996 6.3125 9.92472 8.46523 7.43167C9.69431 6.01987 11.0444 4.71812 12.5 3.54128C13.9556 4.71812 15.3057 6.01987 16.5348 7.43167C18.6875 9.92472 21.2656 13.7996 21.2656 18.0935C21.2632 20.4176 20.3389 22.6457 18.6956 24.2891C17.0522 25.9325 14.8241 26.8567 12.5 26.8591ZM18.8963 20.1044C18.5725 21.1338 18.005 22.0698 17.2419 22.8329C16.4789 23.5959 15.5429 24.1635 14.5135 24.4873C14.3632 24.534 14.2068 24.5579 14.0495 24.5582C13.6797 24.5584 13.322 24.4262 13.0414 24.1855C12.7607 23.9448 12.5755 23.6115 12.5194 23.246C12.4633 22.8805 12.5399 22.507 12.7355 22.1932C12.9311 21.8794 13.2326 21.646 13.5854 21.5353C14.1401 21.361 14.6446 21.0553 15.0557 20.6441C15.4669 20.2329 15.7727 19.7285 15.947 19.1737C16.0079 18.9799 16.1064 18.8 16.2369 18.6442C16.3674 18.4885 16.5272 18.36 16.7074 18.266C17.0712 18.0762 17.4955 18.0388 17.887 18.1618C18.0808 18.2228 18.2607 18.3213 18.4165 18.4518C18.5723 18.5822 18.7008 18.7421 18.7947 18.9223C18.8887 19.1024 18.9463 19.2993 18.9641 19.5017C18.982 19.7041 18.9598 19.908 18.8989 20.1019L18.8963 20.1044Z" fill="white"/>
</svg>
