<svg width="31" height="23" viewBox="0 0 31 23" fill="none" xmlns="http://www.w3.org/2000/svg">
<path d="M30.689 11.6789C30.5575 11.4478 30.3812 11.2452 30.1705 11.0829C29.9598 10.9207 29.7189 10.8021 29.4618 10.734C28.5293 10.4939 27.5656 10.3974 26.604 10.4478C27.1196 7.88902 26.7329 5.8652 26.3384 4.66508C26.1812 4.1721 25.846 3.75533 25.3982 3.49605C24.9504 3.23676 24.4221 3.15353 23.9163 3.26258C22.6046 3.55472 21.3573 4.0842 20.236 4.82492C19.4148 3.14739 18.2192 1.68096 16.7414 0.538789C16.3832 0.270194 15.9476 0.125 15.5 0.125C15.0523 0.125 14.6167 0.270194 14.2586 0.538789C12.7805 1.68063 11.5848 3.14714 10.764 4.82492C9.64268 4.0842 8.39542 3.55472 7.0837 3.26258C6.57787 3.15353 6.04956 3.23676 5.60176 3.49605C5.15397 3.75533 4.81878 4.1721 4.66155 4.66508C4.27483 5.8652 3.88811 7.88773 4.396 10.4478C3.43438 10.3974 2.47069 10.4939 1.53815 10.734C1.28109 10.8021 1.04018 10.9207 0.829479 11.0829C0.618776 11.2452 0.442506 11.4478 0.310963 11.6789C0.173298 11.9156 0.0841595 12.1774 0.0487481 12.449C0.0133367 12.7205 0.0323617 12.9964 0.104713 13.2605C0.541705 14.8809 1.88362 17.963 5.94803 20.3916C10.0124 22.8202 13.5832 22.8125 15.5064 22.8125C17.4297 22.8125 21.0069 22.8125 25.0455 20.3916C29.1099 17.963 30.4518 14.8809 30.8888 13.2605C30.9621 12.9968 30.9822 12.7212 30.9479 12.4496C30.9136 12.1781 30.8256 11.9161 30.689 11.6789ZM6.6235 5.2993C6.62504 5.2929 6.62897 5.28733 6.63448 5.28374C6.64 5.28014 6.64667 5.27879 6.65315 5.27996C7.85261 5.55092 8.98452 6.06271 9.98022 6.7843C9.52685 8.26744 9.3017 9.81091 9.31249 11.3618C9.31249 13.7775 9.79846 15.7446 10.4868 17.3275C9.50822 16.3481 8.66148 15.2452 7.96799 14.0469C5.6451 10.0018 6.1285 6.82812 6.6235 5.2993ZM7.01022 18.6218C3.57229 16.5696 2.45725 14.0533 2.09374 12.7191C3.04225 12.4856 4.0265 12.4344 4.99413 12.5683C5.31716 13.4336 5.71169 14.2705 6.17362 15.0704C7.30781 17.0258 8.79371 18.7547 10.5564 20.1699C9.30998 19.8116 8.11598 19.291 7.00506 18.6218H7.01022ZM15.5 20.5437C14.2973 19.6491 11.375 16.9047 11.375 11.3618C11.375 5.88711 14.2599 3.12078 15.5 2.1875C16.7401 3.12336 19.625 5.88969 19.625 11.3643C19.625 16.9047 16.7027 19.6491 15.5 20.5437ZM21.0198 6.7843C22.0156 6.06317 23.1475 5.55181 24.3468 5.28125C24.3533 5.28008 24.36 5.28143 24.3655 5.28503C24.371 5.28862 24.3749 5.29419 24.3765 5.30059C24.8715 6.82813 25.3549 10.0018 23.032 14.0469C22.3391 15.2468 21.4923 16.351 20.5132 17.3314C21.2015 15.751 21.6875 13.7813 21.6875 11.3656C21.6987 9.81348 21.4735 8.26868 21.0198 6.7843ZM28.9062 12.7217C28.5492 14.043 27.4367 16.5644 23.9962 18.6218C22.8852 19.2906 21.6912 19.8107 20.4448 20.1686C22.2075 18.7534 23.6935 17.0245 24.8276 15.0691C25.2896 14.2693 25.6841 13.4323 26.0071 12.567C26.9745 12.4337 27.9584 12.4858 28.9062 12.7204V12.7217Z" fill="black"/>
</svg>
