<svg width="27" height="27" viewBox="0 0 27 27" fill="none" xmlns="http://www.w3.org/2000/svg">
<path d="M13.5 0.09375C10.8485 0.09375 8.25654 0.880013 6.05189 2.35311C3.84725 3.82621 2.12893 5.91998 1.11425 8.36965C0.0995587 10.8193 -0.16593 13.5149 0.351353 16.1154C0.868637 18.716 2.14546 21.1048 4.02036 22.9797C5.89525 24.8545 8.28402 26.1314 10.8846 26.6487C13.4851 27.1659 16.1807 26.9004 18.6304 25.8858C21.08 24.8711 23.1738 23.1528 24.6469 20.9481C26.12 18.7435 26.9063 16.1515 26.9063 13.5C26.9022 9.9457 25.4884 6.53814 22.9751 4.02487C20.4619 1.5116 17.0543 0.097844 13.5 0.09375ZM24.7948 12.4688H19.6604C19.4297 7.76238 17.6173 4.43402 16.131 2.46563C18.4388 3.01981 20.5152 4.28239 22.0692 6.07631C23.6231 7.87023 24.5767 10.1055 24.7961 12.4688H24.7948ZM9.40465 14.5312H17.5954C17.2976 19.895 14.7298 23.1821 13.5 24.457C12.269 23.1809 9.70243 19.8937 9.40465 14.5312ZM9.40465 12.4688C9.70243 7.10496 12.2702 3.81785 13.5 2.54297C14.7311 3.82301 17.2976 7.11012 17.5954 12.4688H9.40465ZM10.869 2.46563C9.38274 4.43402 7.57032 7.76238 7.33958 12.4688H2.20395C2.42334 10.1055 3.37687 7.87023 4.93084 6.07631C6.4848 4.28239 8.56125 3.01981 10.869 2.46563ZM2.20395 14.5312H7.33958C7.57419 19.2376 9.38274 22.566 10.869 24.5344C8.56125 23.9802 6.4848 22.7176 4.93084 20.9237C3.37687 19.1298 2.42334 16.8945 2.20395 14.5312ZM16.1258 24.5344C17.6121 22.566 19.4207 19.2376 19.6553 14.5312H24.7909C24.5718 16.8938 23.6191 19.1286 22.0661 20.9224C20.5131 22.7163 18.4378 23.9793 16.131 24.5344H16.1258Z" fill="black"/>
</svg>
