<svg width="29" height="30" viewBox="0 0 29 30" fill="none" xmlns="http://www.w3.org/2000/svg">
<path d="M14.5 22.715C14.8307 22.9353 15.1752 23.1342 15.5313 23.3106V28.4063C15.5313 28.6798 15.4226 28.9421 15.2292 29.1355C15.0358 29.3289 14.7735 29.4375 14.5 29.4375C14.2265 29.4375 13.9642 29.3289 13.7708 29.1355C13.5774 28.9421 13.4688 28.6798 13.4688 28.4063V23.3106C13.8248 23.1342 14.1693 22.9353 14.5 22.715ZM23.5363 6.56824C22.7903 4.78707 21.5346 3.2661 19.9268 2.1964C18.3191 1.12671 16.4311 0.556012 14.5 0.556012C12.5689 0.556012 10.6809 1.12671 9.07317 2.1964C7.46543 3.2661 6.20967 4.78707 5.46367 6.56824C3.85261 7.3046 2.48705 8.48835 1.5295 9.9786C0.571956 11.4689 0.062754 13.2029 0.0624995 14.9742C0.0496089 19.8984 4.1875 24.1523 9.10399 24.2813C10.6162 24.3171 12.1143 23.9839 13.4688 23.3106V18.7305L7.85102 15.923C7.60623 15.8006 7.42009 15.586 7.33354 15.3263C7.247 15.0667 7.26714 14.7833 7.38953 14.5385C7.51192 14.2937 7.72655 14.1076 7.98618 14.021C8.24582 13.9345 8.5292 13.9546 8.77399 14.077L13.4688 16.4257V9.84375C13.4688 9.57025 13.5774 9.30794 13.7708 9.11455C13.9642 8.92115 14.2265 8.8125 14.5 8.8125C14.7735 8.8125 15.0358 8.92115 15.2292 9.11455C15.4226 9.30794 15.5313 9.57025 15.5313 9.84375V13.332L20.226 10.9833C20.3472 10.9227 20.4792 10.8865 20.6144 10.8769C20.7495 10.8673 20.8853 10.8844 21.0138 10.9273C21.1424 10.9701 21.2612 11.0379 21.3636 11.1267C21.466 11.2155 21.5499 11.3236 21.6105 11.4448C21.6711 11.566 21.7072 11.6979 21.7168 11.8331C21.7264 11.9683 21.7093 12.104 21.6665 12.2326C21.6236 12.3611 21.5559 12.48 21.4671 12.5824C21.3783 12.6847 21.2702 12.7686 21.149 12.8292L15.5313 15.6368V23.3106C16.8133 23.9472 18.2249 24.2793 19.6563 24.2813H19.8909C24.8125 24.1523 28.9517 19.8984 28.9375 14.9742C28.9372 13.2029 28.428 11.4689 27.4705 9.9786C26.513 8.48835 25.1474 7.3046 23.5363 6.56824Z" fill="white"/>
</svg>
