<svg width="26" height="27" viewBox="0 0 26 27" fill="none" xmlns="http://www.w3.org/2000/svg">
<path d="M21.003 6.02094C20.3175 4.47015 19.1961 3.15193 17.7754 2.22658C16.3546 1.30122 14.6956 0.808594 13 0.808594C11.3045 0.808594 9.64542 1.30122 8.22464 2.22658C6.80387 3.15193 5.68255 4.47015 4.99703 6.02094C3.07305 6.96658 1.5888 8.61898 0.854292 10.633C0.119781 12.6471 0.191805 14.8671 1.05532 16.8293C1.91884 18.7915 3.50707 20.3442 5.4883 21.1632C7.46953 21.9821 9.69056 22.0039 11.6875 21.2241V24.875C11.6875 25.2231 11.8258 25.5569 12.0719 25.8031C12.3181 26.0492 12.6519 26.1875 13 26.1875C13.3481 26.1875 13.6819 26.0492 13.9281 25.8031C14.1742 25.5569 14.3125 25.2231 14.3125 24.875V21.2263C15.2874 21.6124 16.3264 21.8113 17.375 21.8125H17.585C19.4485 21.7666 21.2425 21.0957 22.6788 19.9075C24.1151 18.7193 25.1104 17.0829 25.5047 15.261C25.899 13.4391 25.6696 11.5376 24.8531 9.86179C24.0367 8.18603 22.6807 6.83331 21.003 6.02094ZM17.5227 19.1875C16.3869 19.2155 15.2689 18.9027 14.3125 18.2895V14.3116L18.8373 12.0486C18.994 11.973 19.1341 11.867 19.2495 11.7368C19.3648 11.6066 19.4531 11.4547 19.5093 11.2901C19.5654 11.1254 19.5883 10.9513 19.5765 10.7777C19.5647 10.6041 19.5186 10.4347 19.4407 10.2791C19.3629 10.1235 19.2549 9.98499 19.123 9.87154C18.9911 9.75808 18.838 9.67198 18.6726 9.61823C18.5071 9.56447 18.3326 9.54415 18.1593 9.55843C17.9859 9.57271 17.8171 9.62131 17.6627 9.70141L14.3125 11.3759V9.125C14.3125 8.77691 14.1742 8.44307 13.9281 8.19693C13.6819 7.95078 13.3481 7.8125 13 7.8125C12.6519 7.8125 12.3181 7.95078 12.0719 8.19693C11.8258 8.44307 11.6875 8.77691 11.6875 9.125V14.0009L8.33734 12.3264C8.0268 12.1766 7.66976 12.155 7.34341 12.2662C7.01705 12.3775 6.7476 12.6128 6.59328 12.9211C6.43896 13.2295 6.41218 13.5861 6.51873 13.9141C6.62527 14.242 6.85658 14.5148 7.16266 14.6736L11.6875 16.9366V18.2895C10.7305 18.9013 9.61286 19.2139 8.47734 19.1875C5.46625 19.112 2.92984 16.5013 2.9375 13.4858C2.93796 12.3528 3.27804 11.246 3.91382 10.3082C4.5496 9.37039 5.4519 8.64471 6.50422 8.22485C6.6745 8.15619 6.82848 8.05258 6.95622 7.9207C7.08395 7.78882 7.1826 7.63161 7.24578 7.45922C7.67624 6.279 8.4592 5.25968 9.48852 4.53946C10.5178 3.81923 11.7437 3.43293 13 3.43293C14.2563 3.43293 15.4822 3.81923 16.5115 4.53946C17.5408 5.25968 18.3238 6.279 18.7542 7.45922C18.8174 7.63161 18.916 7.78882 19.0438 7.9207C19.1715 8.05258 19.3255 8.15619 19.4958 8.22485C20.5478 8.64458 21.4498 9.36991 22.0856 10.3073C22.7213 11.2446 23.0616 12.351 23.0625 13.4836C23.0713 16.498 20.5338 19.1098 17.5227 19.1875Z" fill="black"/>
</svg>
