<svg width="25" height="25" viewBox="0 0 25 25" fill="none" xmlns="http://www.w3.org/2000/svg">
<path d="M24.8041 1.1653C24.7894 0.913013 24.6825 0.674917 24.5038 0.496218C24.3251 0.317519 24.087 0.210659 23.8348 0.195926C14.0211 -0.380285 6.16041 2.57425 2.80885 8.11722C1.6471 10.0133 1.07462 12.2117 1.16401 14.4336C1.23749 16.4858 1.83561 18.5586 2.94163 20.6018L0.426665 23.1155C0.23316 23.309 0.124451 23.5714 0.124451 23.8451C0.124451 24.1187 0.23316 24.3812 0.426665 24.5747C0.620169 24.7682 0.882617 24.8769 1.15627 24.8769C1.42993 24.8769 1.69238 24.7682 1.88588 24.5747L4.39956 22.0597C6.44143 23.1644 8.51553 23.7626 10.5664 23.836C10.7099 23.8412 10.853 23.8438 10.9957 23.8438C13.0733 23.8493 15.1116 23.2772 16.8828 22.1912C22.4258 18.8396 25.3816 10.9802 24.8041 1.1653ZM15.8194 20.4278C12.8867 22.2041 9.4153 22.2325 5.93096 20.527L17.3559 9.10335C17.4517 9.00753 17.5277 8.89379 17.5796 8.7686C17.6314 8.64341 17.6581 8.50924 17.6581 8.37374C17.6581 8.23824 17.6314 8.10406 17.5796 7.97888C17.5277 7.85369 17.4517 7.73994 17.3559 7.64413C17.2601 7.54832 17.1464 7.47231 17.0212 7.42046C16.896 7.3686 16.7618 7.34191 16.6263 7.34191C16.4908 7.34191 16.3566 7.3686 16.2315 7.42046C16.1063 7.47231 15.9925 7.54832 15.8967 7.64413L4.47303 19.0742C2.77276 15.5938 2.79725 12.1133 4.57229 9.18585C7.41983 4.48464 14.1887 1.91038 22.788 2.21718C23.0961 10.8101 20.5206 17.5802 15.8194 20.4278Z" fill="black"/>
</svg>
