<svg width="32" height="26" viewBox="0 0 32 26" fill="none" xmlns="http://www.w3.org/2000/svg">
<path d="M30.4382 17.125V13.2578C30.4408 12.7029 30.263 12.1622 29.9318 11.717C29.6005 11.2718 29.1336 10.9462 28.6013 10.7893L28.5614 10.7777L24.2507 9.60332V5.78125C24.2507 5.37099 24.0878 4.97754 23.7977 4.68744C23.5076 4.39735 23.1141 4.23438 22.7039 4.23438C22.2936 4.23438 21.9001 4.39735 21.61 4.68744C21.32 4.97754 21.157 5.37099 21.157 5.78125V8.76543L19.0945 8.20727V3.71875H19.6101C20.0204 3.71875 20.4138 3.55578 20.7039 3.26568C20.994 2.97559 21.157 2.58213 21.157 2.17188C21.157 1.76162 20.994 1.36816 20.7039 1.07807C20.4138 0.787974 20.0204 0.625 19.6101 0.625H4.14135C3.73109 0.625 3.33764 0.787974 3.04754 1.07807C2.75745 1.36816 2.59447 1.76162 2.59447 2.17188C2.59447 2.58213 2.75745 2.97559 3.04754 3.26568C3.33764 3.55578 3.73109 3.71875 4.14135 3.71875H4.65697V6.8125H4.14135C3.73109 6.8125 3.33764 6.97547 3.04754 7.26557C2.75745 7.55567 2.59447 7.94912 2.59447 8.35938C2.59447 8.76963 2.75745 9.16309 3.04754 9.45318C3.33764 9.74328 3.73109 9.90625 4.14135 9.90625H7.75072C9.93803 9.90864 12.0351 10.7786 13.5817 12.3253C15.1284 13.8719 15.9983 15.9689 16.0007 18.1563V19.7031C16.0007 20.1134 16.1637 20.5068 16.4538 20.7969C16.7439 21.087 17.1373 21.25 17.5476 21.25H21.2601C21.415 22.0073 21.7382 22.7201 22.2057 23.3357C22.6733 23.9512 23.2733 24.4538 23.9613 24.8062C24.6493 25.1585 25.4077 25.3517 26.1804 25.3714C26.9532 25.3911 27.7205 25.2368 28.4255 24.9199C29.1306 24.603 29.7554 24.1317 30.2537 23.5407C30.752 22.9498 31.111 22.2544 31.3043 21.5059C31.4975 20.7575 31.52 19.9752 31.3701 19.2168C31.2202 18.4585 30.9017 17.7436 30.4382 17.125ZM16.0007 10.3793C14.9423 9.25261 13.6642 8.3548 12.2452 7.74133C10.8263 7.12785 9.29661 6.81174 7.75072 6.8125V3.71875H16.0007V10.3793ZM21.5888 18.1563H19.0945V11.4119L27.3445 13.6445V15.1656C27.005 15.0972 26.6595 15.0626 26.3132 15.0625C25.3104 15.0638 24.3296 15.357 23.4907 15.9064C22.6517 16.4557 21.9909 17.2375 21.5888 18.1563ZM26.3132 22.2813C25.9053 22.2813 25.5065 22.1603 25.1674 21.9337C24.8282 21.707 24.5638 21.3849 24.4077 21.008C24.2516 20.6312 24.2108 20.2165 24.2904 19.8164C24.3699 19.4163 24.5664 19.0488 24.8548 18.7603C25.1433 18.4719 25.5108 18.2755 25.9109 18.1959C26.3109 18.1163 26.7256 18.1571 27.1025 18.3132C27.4794 18.4694 27.8015 18.7337 28.0281 19.0729C28.2548 19.4121 28.3757 19.8108 28.3757 20.2188C28.3757 20.7658 28.1584 21.2904 27.7716 21.6772C27.3848 22.064 26.8602 22.2813 26.3132 22.2813ZM7.2351 11.9688C5.90935 11.9688 4.61337 12.3619 3.51104 13.0984C2.40872 13.835 1.54956 14.8819 1.04222 16.1067C0.534875 17.3315 0.402131 18.6793 0.660773 19.9796C0.919414 21.2799 1.55783 22.4743 2.49527 23.4117C3.43272 24.3492 4.62711 24.9876 5.92738 25.2462C7.22766 25.5048 8.57544 25.3721 9.80027 24.8648C11.0251 24.3574 12.072 23.4983 12.8085 22.3959C13.5451 21.2936 13.9382 19.9976 13.9382 18.6719C13.9362 16.8947 13.2293 15.1909 11.9727 13.9343C10.716 12.6777 9.01225 11.9708 7.2351 11.9688ZM7.2351 22.2813C6.52123 22.2813 5.8234 22.0696 5.22984 21.673C4.63628 21.2764 4.17366 20.7127 3.90047 20.0531C3.62729 19.3936 3.55581 18.6679 3.69508 17.9677C3.83435 17.2676 4.17811 16.6244 4.68289 16.1197C5.18767 15.6149 5.8308 15.2711 6.53095 15.1319C7.2311 14.9926 7.95682 15.0641 8.61635 15.3372C9.27588 15.6104 9.83958 16.0731 10.2362 16.6666C10.6328 17.2602 10.8445 17.958 10.8445 18.6719C10.8445 19.6291 10.4642 20.5472 9.78731 21.2241C9.11042 21.901 8.19237 22.2813 7.2351 22.2813ZM9.2976 18.6719C9.2976 19.0798 9.17664 19.4786 8.95001 19.8177C8.72338 20.1569 8.40126 20.4213 8.02438 20.5774C7.64751 20.7335 7.23281 20.7743 6.83273 20.6947C6.43264 20.6152 6.06514 20.4187 5.77669 20.1303C5.48825 19.8418 5.29181 19.4743 5.21223 19.0743C5.13265 18.6742 5.17349 18.2595 5.3296 17.8826C5.4857 17.5057 5.75006 17.1836 6.08924 16.957C6.42841 16.7303 6.82718 16.6094 7.2351 16.6094C7.78211 16.6094 8.30671 16.8267 8.69351 17.2135C9.0803 17.6003 9.2976 18.1249 9.2976 18.6719Z" fill="white"/>
</svg>
